<mxfile host="Electron" agent="Mozilla/5.0 (Macintosh; Intel Mac OS X 10_15_7) AppleWebKit/537.36 (KHTML, like Gecko) draw.io/24.7.17 Chrome/128.0.6613.36 Electron/32.0.1 Safari/537.36" version="24.7.17">
  <diagram name="페이지-1" id="hEEMBXZSEIcuvb8T5DBI">
    <mxGraphModel dx="615" dy="449" grid="1" gridSize="10" guides="1" tooltips="1" connect="1" arrows="1" fold="1" page="1" pageScale="1" pageWidth="827" pageHeight="1169" math="0" shadow="0">
      <root>
        <mxCell id="0" />
        <mxCell id="1" parent="0" />
        <mxCell id="Wo4IVE7KQsOFihpF6E0Y-28" style="edgeStyle=orthogonalEdgeStyle;rounded=0;orthogonalLoop=1;jettySize=auto;html=1;exitX=0.875;exitY=0.5;exitDx=0;exitDy=0;exitPerimeter=0;entryX=0;entryY=0.5;entryDx=0;entryDy=0;" edge="1" parent="1" source="Wo4IVE7KQsOFihpF6E0Y-1" target="Wo4IVE7KQsOFihpF6E0Y-10">
          <mxGeometry relative="1" as="geometry" />
        </mxCell>
        <mxCell id="Wo4IVE7KQsOFihpF6E0Y-1" value="" style="ellipse;shape=cloud;whiteSpace=wrap;html=1;" vertex="1" parent="1">
          <mxGeometry x="190" y="120" width="120" height="80" as="geometry" />
        </mxCell>
        <mxCell id="Wo4IVE7KQsOFihpF6E0Y-2" value="" style="ellipse;whiteSpace=wrap;html=1;aspect=fixed;fillColor=#C3ABD0;" vertex="1" parent="1">
          <mxGeometry x="230" y="140" width="10" height="10" as="geometry" />
        </mxCell>
        <mxCell id="Wo4IVE7KQsOFihpF6E0Y-3" value="" style="ellipse;whiteSpace=wrap;html=1;aspect=fixed;fillColor=#C3ABD0;" vertex="1" parent="1">
          <mxGeometry x="240" y="150" width="10" height="10" as="geometry" />
        </mxCell>
        <mxCell id="Wo4IVE7KQsOFihpF6E0Y-4" value="" style="ellipse;whiteSpace=wrap;html=1;aspect=fixed;fillColor=#C3ABD0;" vertex="1" parent="1">
          <mxGeometry x="250" y="160" width="10" height="10" as="geometry" />
        </mxCell>
        <mxCell id="Wo4IVE7KQsOFihpF6E0Y-5" value="" style="ellipse;whiteSpace=wrap;html=1;aspect=fixed;fillColor=#C3ABD0;" vertex="1" parent="1">
          <mxGeometry x="260" y="170" width="10" height="10" as="geometry" />
        </mxCell>
        <mxCell id="Wo4IVE7KQsOFihpF6E0Y-6" value="" style="ellipse;whiteSpace=wrap;html=1;aspect=fixed;fillColor=#C3ABD0;" vertex="1" parent="1">
          <mxGeometry x="280" y="140" width="10" height="10" as="geometry" />
        </mxCell>
        <mxCell id="Wo4IVE7KQsOFihpF6E0Y-7" value="" style="ellipse;whiteSpace=wrap;html=1;aspect=fixed;fillColor=#C3ABD0;" vertex="1" parent="1">
          <mxGeometry x="220" y="170" width="10" height="10" as="geometry" />
        </mxCell>
        <mxCell id="Wo4IVE7KQsOFihpF6E0Y-8" value="" style="ellipse;whiteSpace=wrap;html=1;aspect=fixed;fillColor=#C3ABD0;" vertex="1" parent="1">
          <mxGeometry x="280" y="160" width="10" height="10" as="geometry" />
        </mxCell>
        <mxCell id="Wo4IVE7KQsOFihpF6E0Y-30" style="edgeStyle=orthogonalEdgeStyle;rounded=0;orthogonalLoop=1;jettySize=auto;html=1;exitX=0.5;exitY=1;exitDx=0;exitDy=0;entryX=0.5;entryY=0;entryDx=0;entryDy=0;" edge="1" parent="1" source="Wo4IVE7KQsOFihpF6E0Y-9" target="Wo4IVE7KQsOFihpF6E0Y-12">
          <mxGeometry relative="1" as="geometry" />
        </mxCell>
        <mxCell id="Wo4IVE7KQsOFihpF6E0Y-9" value="학습&lt;div&gt;(데이터 분석)&lt;/div&gt;" style="shape=process;whiteSpace=wrap;html=1;backgroundOutline=1;" vertex="1" parent="1">
          <mxGeometry x="480" y="130" width="120" height="60" as="geometry" />
        </mxCell>
        <mxCell id="Wo4IVE7KQsOFihpF6E0Y-29" style="edgeStyle=orthogonalEdgeStyle;rounded=0;orthogonalLoop=1;jettySize=auto;html=1;exitX=1;exitY=0.5;exitDx=0;exitDy=0;entryX=0;entryY=0.5;entryDx=0;entryDy=0;" edge="1" parent="1" source="Wo4IVE7KQsOFihpF6E0Y-10" target="Wo4IVE7KQsOFihpF6E0Y-9">
          <mxGeometry relative="1" as="geometry" />
        </mxCell>
        <mxCell id="Wo4IVE7KQsOFihpF6E0Y-10" value="데이터 전처리" style="shape=process;whiteSpace=wrap;html=1;backgroundOutline=1;" vertex="1" parent="1">
          <mxGeometry x="330" y="130" width="120" height="60" as="geometry" />
        </mxCell>
        <mxCell id="Wo4IVE7KQsOFihpF6E0Y-11" value="학습 데이터" style="text;strokeColor=none;align=center;fillColor=none;html=1;verticalAlign=middle;whiteSpace=wrap;rounded=0;" vertex="1" parent="1">
          <mxGeometry x="225" y="200" width="60" height="30" as="geometry" />
        </mxCell>
        <mxCell id="Wo4IVE7KQsOFihpF6E0Y-31" style="edgeStyle=orthogonalEdgeStyle;rounded=0;orthogonalLoop=1;jettySize=auto;html=1;exitX=0.5;exitY=1;exitDx=0;exitDy=0;entryX=0.5;entryY=0;entryDx=0;entryDy=0;" edge="1" parent="1" source="Wo4IVE7KQsOFihpF6E0Y-12" target="Wo4IVE7KQsOFihpF6E0Y-13">
          <mxGeometry relative="1" as="geometry" />
        </mxCell>
        <mxCell id="Wo4IVE7KQsOFihpF6E0Y-12" value="결정 경계&lt;div&gt;g(x;&amp;nbsp;&lt;span style=&quot;text-align: start; background-color: initial;&quot;&gt;&lt;font style=&quot;font-size: 12px;&quot;&gt;𝜽) = 0&lt;/font&gt;&lt;/span&gt;&lt;/div&gt;" style="shape=parallelogram;perimeter=parallelogramPerimeter;whiteSpace=wrap;html=1;dashed=0;" vertex="1" parent="1">
          <mxGeometry x="480" y="220" width="120" height="80" as="geometry" />
        </mxCell>
        <mxCell id="Wo4IVE7KQsOFihpF6E0Y-37" style="edgeStyle=orthogonalEdgeStyle;rounded=0;orthogonalLoop=1;jettySize=auto;html=1;exitX=1;exitY=0.5;exitDx=0;exitDy=0;" edge="1" parent="1" source="Wo4IVE7KQsOFihpF6E0Y-13" target="Wo4IVE7KQsOFihpF6E0Y-38">
          <mxGeometry relative="1" as="geometry">
            <mxPoint x="640" y="369.75" as="targetPoint" />
          </mxGeometry>
        </mxCell>
        <mxCell id="Wo4IVE7KQsOFihpF6E0Y-13" value="g(xnew;&amp;nbsp;&lt;span style=&quot;text-align: start;&quot;&gt;𝜽)&lt;/span&gt;" style="shape=process;whiteSpace=wrap;html=1;backgroundOutline=1;" vertex="1" parent="1">
          <mxGeometry x="480" y="340" width="120" height="60" as="geometry" />
        </mxCell>
        <mxCell id="Wo4IVE7KQsOFihpF6E0Y-32" style="edgeStyle=orthogonalEdgeStyle;rounded=0;orthogonalLoop=1;jettySize=auto;html=1;exitX=0.875;exitY=0.5;exitDx=0;exitDy=0;exitPerimeter=0;entryX=0;entryY=0.5;entryDx=0;entryDy=0;" edge="1" parent="1" source="Wo4IVE7KQsOFihpF6E0Y-14" target="Wo4IVE7KQsOFihpF6E0Y-23">
          <mxGeometry relative="1" as="geometry" />
        </mxCell>
        <mxCell id="Wo4IVE7KQsOFihpF6E0Y-14" value="" style="ellipse;shape=cloud;whiteSpace=wrap;html=1;" vertex="1" parent="1">
          <mxGeometry x="195" y="330" width="120" height="80" as="geometry" />
        </mxCell>
        <mxCell id="Wo4IVE7KQsOFihpF6E0Y-15" value="" style="ellipse;whiteSpace=wrap;html=1;aspect=fixed;fillColor=#dae8fc;strokeColor=#6c8ebf;" vertex="1" parent="1">
          <mxGeometry x="235" y="350" width="10" height="10" as="geometry" />
        </mxCell>
        <mxCell id="Wo4IVE7KQsOFihpF6E0Y-16" value="" style="ellipse;whiteSpace=wrap;html=1;aspect=fixed;fillColor=#dae8fc;strokeColor=#6c8ebf;" vertex="1" parent="1">
          <mxGeometry x="245" y="360" width="10" height="10" as="geometry" />
        </mxCell>
        <mxCell id="Wo4IVE7KQsOFihpF6E0Y-17" value="" style="ellipse;whiteSpace=wrap;html=1;aspect=fixed;fillColor=#dae8fc;strokeColor=#6c8ebf;" vertex="1" parent="1">
          <mxGeometry x="255" y="370" width="10" height="10" as="geometry" />
        </mxCell>
        <mxCell id="Wo4IVE7KQsOFihpF6E0Y-18" value="" style="ellipse;whiteSpace=wrap;html=1;aspect=fixed;fillColor=#dae8fc;strokeColor=#6c8ebf;" vertex="1" parent="1">
          <mxGeometry x="265" y="380" width="10" height="10" as="geometry" />
        </mxCell>
        <mxCell id="Wo4IVE7KQsOFihpF6E0Y-19" value="" style="ellipse;whiteSpace=wrap;html=1;aspect=fixed;fillColor=#dae8fc;strokeColor=#6c8ebf;" vertex="1" parent="1">
          <mxGeometry x="285" y="350" width="10" height="10" as="geometry" />
        </mxCell>
        <mxCell id="Wo4IVE7KQsOFihpF6E0Y-20" value="" style="ellipse;whiteSpace=wrap;html=1;aspect=fixed;fillColor=#dae8fc;strokeColor=#6c8ebf;" vertex="1" parent="1">
          <mxGeometry x="225" y="380" width="10" height="10" as="geometry" />
        </mxCell>
        <mxCell id="Wo4IVE7KQsOFihpF6E0Y-21" value="" style="ellipse;whiteSpace=wrap;html=1;aspect=fixed;fillColor=#dae8fc;strokeColor=#6c8ebf;" vertex="1" parent="1">
          <mxGeometry x="285" y="370" width="10" height="10" as="geometry" />
        </mxCell>
        <mxCell id="Wo4IVE7KQsOFihpF6E0Y-22" value="테스트 데이터" style="text;strokeColor=none;align=center;fillColor=none;html=1;verticalAlign=middle;whiteSpace=wrap;rounded=0;" vertex="1" parent="1">
          <mxGeometry x="225" y="410" width="70" height="30" as="geometry" />
        </mxCell>
        <mxCell id="Wo4IVE7KQsOFihpF6E0Y-33" style="edgeStyle=orthogonalEdgeStyle;rounded=0;orthogonalLoop=1;jettySize=auto;html=1;exitX=1;exitY=0.5;exitDx=0;exitDy=0;entryX=0;entryY=0.5;entryDx=0;entryDy=0;" edge="1" parent="1" source="Wo4IVE7KQsOFihpF6E0Y-23" target="Wo4IVE7KQsOFihpF6E0Y-13">
          <mxGeometry relative="1" as="geometry" />
        </mxCell>
        <mxCell id="Wo4IVE7KQsOFihpF6E0Y-23" value="데이터 전처리" style="shape=process;whiteSpace=wrap;html=1;backgroundOutline=1;" vertex="1" parent="1">
          <mxGeometry x="330" y="340" width="120" height="60" as="geometry" />
        </mxCell>
        <mxCell id="Wo4IVE7KQsOFihpF6E0Y-24" value="{(x1, y1), (x2, y2) ... (xn, yn)}" style="text;strokeColor=none;align=center;fillColor=none;html=1;verticalAlign=middle;whiteSpace=wrap;rounded=0;" vertex="1" parent="1">
          <mxGeometry x="175" y="220" width="170" height="30" as="geometry" />
        </mxCell>
        <mxCell id="Wo4IVE7KQsOFihpF6E0Y-25" value="{xnew1, xnew2 ... xnewM}" style="text;strokeColor=none;align=center;fillColor=none;html=1;verticalAlign=middle;whiteSpace=wrap;rounded=0;" vertex="1" parent="1">
          <mxGeometry x="175" y="430" width="170" height="30" as="geometry" />
        </mxCell>
        <mxCell id="Wo4IVE7KQsOFihpF6E0Y-26" value="&lt;font color=&quot;#7ea6e0&quot; style=&quot;font-size: 10px;&quot;&gt;특징벡터(x)와 클래스(y)가 함께 존재&lt;/font&gt;" style="text;strokeColor=none;align=center;fillColor=none;html=1;verticalAlign=middle;whiteSpace=wrap;rounded=0;" vertex="1" parent="1">
          <mxGeometry x="162.5" y="236" width="185" height="30" as="geometry" />
        </mxCell>
        <mxCell id="Wo4IVE7KQsOFihpF6E0Y-27" value="&lt;font color=&quot;#7ea6e0&quot; style=&quot;font-size: 10px;&quot;&gt;특징벡터만 존재&lt;/font&gt;" style="text;strokeColor=none;align=center;fillColor=none;html=1;verticalAlign=middle;whiteSpace=wrap;rounded=0;" vertex="1" parent="1">
          <mxGeometry x="162.5" y="444" width="185" height="30" as="geometry" />
        </mxCell>
        <mxCell id="Wo4IVE7KQsOFihpF6E0Y-36" style="edgeStyle=orthogonalEdgeStyle;rounded=0;orthogonalLoop=1;jettySize=auto;html=1;exitX=0.5;exitY=1;exitDx=0;exitDy=0;entryX=0;entryY=0.5;entryDx=0;entryDy=0;dashed=1;dashPattern=1 2;endArrow=none;endFill=0;" edge="1" parent="1" source="Wo4IVE7KQsOFihpF6E0Y-34" target="Wo4IVE7KQsOFihpF6E0Y-35">
          <mxGeometry relative="1" as="geometry">
            <Array as="points">
              <mxPoint x="531" y="285" />
            </Array>
          </mxGeometry>
        </mxCell>
        <mxCell id="Wo4IVE7KQsOFihpF6E0Y-34" value="" style="rounded=0;whiteSpace=wrap;html=1;fillColor=#dae8fc;strokeColor=none;opacity=50;" vertex="1" parent="1">
          <mxGeometry x="512" y="270" width="38" height="10" as="geometry" />
        </mxCell>
        <mxCell id="Wo4IVE7KQsOFihpF6E0Y-35" value="g(x;&amp;nbsp;&lt;span style=&quot;background-color: initial; text-align: start;&quot;&gt;𝜽) : 결정함수&lt;/span&gt;" style="text;strokeColor=default;align=center;fillColor=none;html=1;verticalAlign=middle;whiteSpace=wrap;rounded=0;dashed=1;dashPattern=1 1;" vertex="1" parent="1">
          <mxGeometry x="610" y="270" width="100" height="30" as="geometry" />
        </mxCell>
        <mxCell id="Wo4IVE7KQsOFihpF6E0Y-38" value="&lt;div style=&quot;text-align: left;&quot;&gt;&lt;span style=&quot;background-color: initial;&quot;&gt;ynew = 0 if g(xnew) &amp;gt;= 0&amp;nbsp; &amp;nbsp; &lt;font color=&quot;#f19c99&quot;&gt;&lt;b&gt;&amp;gt;&amp;gt; class1&lt;/b&gt;&lt;/font&gt;&lt;/span&gt;&lt;/div&gt;&lt;div style=&quot;text-align: left;&quot;&gt;ynew = 0 if g(xnew) &amp;lt; 0&amp;nbsp; &amp;nbsp; &amp;nbsp; &lt;font color=&quot;#67ab9f&quot;&gt;&lt;b&gt;&amp;gt;&amp;gt; class2&lt;/b&gt;&lt;/font&gt;&lt;br&gt;&lt;/div&gt;" style="rounded=1;whiteSpace=wrap;html=1;" vertex="1" parent="1">
          <mxGeometry x="640" y="340" width="230" height="60" as="geometry" />
        </mxCell>
      </root>
    </mxGraphModel>
  </diagram>
</mxfile>
